<?xml version="1.0" encoding="UTF-8" standalone="no"?>
<!-- Created with Inkscape (http://www.inkscape.org/) -->

<svg
   xmlns:dc="http://purl.org/dc/elements/1.1/"
   xmlns:cc="http://creativecommons.org/ns#"
   xmlns:rdf="http://www.w3.org/1999/02/22-rdf-syntax-ns#"
   xmlns:svg="http://www.w3.org/2000/svg"
   xmlns="http://www.w3.org/2000/svg"
   xmlns:sodipodi="http://sodipodi.sourceforge.net/DTD/sodipodi-0.dtd"
   xmlns:inkscape="http://www.inkscape.org/namespaces/inkscape"
   width="302.36221"
   height="302.36221"
   id="svg2"
   version="1.1"
   inkscape:version="0.92.4 (5da689c313, 2019-01-14)"
   sodipodi:docname="++.svg">
  <defs
     id="defs4" />
  <sodipodi:namedview
     id="base"
     pagecolor="#ffffff"
     bordercolor="#666666"
     borderopacity="1.0"
     inkscape:pageopacity="0.0"
     inkscape:pageshadow="2"
     inkscape:zoom="3.959798"
     inkscape:cx="300.13823"
     inkscape:cy="213.41337"
     inkscape:document-units="mm"
     inkscape:current-layer="layer1"
     showgrid="false"
     units="mm"
     inkscape:window-width="1825"
     inkscape:window-height="1046"
     inkscape:window-x="-11"
     inkscape:window-y="-11"
     inkscape:window-maximized="1" />
  <metadata
     id="metadata7">
    <rdf:RDF>
      <cc:Work
         rdf:about="">
        <dc:format>image/svg+xml</dc:format>
        <dc:type
           rdf:resource="http://purl.org/dc/dcmitype/StillImage" />
        <dc:title></dc:title>
      </cc:Work>
    </rdf:RDF>
  </metadata>
  <g
     inkscape:label="Layer 1"
     inkscape:groupmode="layer"
     id="layer1"
     transform="translate(0,-820.15747)">
    <path
       style="fill:#000000;stroke-width:1.06666672"
       d=""
       id="path2998"
       inkscape:connector-curvature="0" />
    <path
       style="fill:#000000;stroke-width:1.06666672"
       d=""
       id="path2998-1"
       inkscape:connector-curvature="0" />
    <path
       style="fill:none;stroke:#000000;stroke-width:0.92535806;stroke-miterlimit:4;stroke-dasharray:none;stroke-opacity:1"
       d="M 150.46268,887.98236 H 293.15936 V 972.057 H 150.46268 Z"
       id="rect3006"
       inkscape:connector-curvature="0" />
    <path
       inkscape:connector-curvature="0"
       id="path3008"
       d="M 150.46268,887.98236 H 293.15936 V 972.057 H 150.46268 Z"
       style="fill:none;stroke:#000000;stroke-width:0.92535806;stroke-miterlimit:4;stroke-dasharray:none;stroke-opacity:1" />
    <path
       style="fill:none;stroke:#000000;stroke-width:0.17550592"
       d="m 155.59367,963.34688 c 1.72554,-2.37909 3.44642,-4.41823 4.8322,-5.72595 2.36019,-2.2272 6.37106,-5.63252 7.72331,-6.55723 2.6211,-1.79242 5.9674,-2.64229 8.55633,-2.17309 0.63023,0.11423 3.88276,0.26958 7.22783,0.34526 3.34508,0.0757 10.1717,0.24033 15.17028,0.36592 16.47,0.41381 26.38426,-0.32743 28.45248,-2.12726 0.32125,-0.27955 0.61823,-0.50828 0.65998,-0.50828 0.0417,0 0.0784,0.49141 0.0815,1.09203 0.01,1.82434 0.86225,3.25002 2.64612,4.42359 1.05339,0.69301 3.02908,1.39824 4.20146,1.49975 l 0.70515,0.061 0.0881,-1.32169 0.0881,-1.32169 2.44215,-2.14025 c 1.34319,-1.17715 2.47721,-2.10552 2.52006,-2.06305 0.0428,0.0424 0.2343,0.73545 0.42542,1.53995 0.44194,1.86015 0.96757,3.16398 1.45649,3.61279 0.46035,0.42259 1.45154,0.70003 2.74854,0.76931 l 0.9545,0.051 0.38444,-1.50034 c 0.42642,-1.66408 0.20227,-1.39329 3.58012,-4.32508 0.90346,-0.78415 1.71658,-1.42573 1.80696,-1.42573 0.0904,0 0.16431,0.26091 0.16431,0.57982 0,1.86663 1.40974,3.86479 3.40735,4.82956 2.00627,0.96894 3.03203,1.14393 6.64111,1.13292 2.85087,-0.009 3.54615,-0.0697 5.5244,-0.48461 3.2941,-0.69088 6.1677,-1.68893 9.42727,-3.27422 3.33396,-1.62148 4.02225,-2.19792 5.02084,-4.20486 1.44411,-2.90237 1.5798,-4.96667 1.50562,-22.90576 -0.0325,-7.85788 -0.088,-14.28716 -0.12338,-14.28726 -0.0354,-1.1e-4 -0.70967,0.5572 -1.49846,1.23845 -2.04659,1.76762 -2.41282,1.8452 -0.61071,0.12937 0.84071,-0.80045 1.67266,-1.71381 1.84879,-2.02966 0.26178,-0.46951 4.90564,-4.73624 5.31745,-4.88564 0.21634,-0.0785 0.24219,28.93884 0.0281,31.63065 -0.37551,4.72302 -0.90964,6.44824 -2.73803,8.84374 -0.89483,1.17237 -7.1742,6.81143 -9.21569,8.27592 -4.21212,3.02167 -10.26695,5.39249 -15.98472,6.25898 -2.29002,0.34702 -6.26217,0.26261 -7.9002,-0.16791 -1.77937,-0.46765 -3.29059,-1.27389 -4.17959,-2.22979 -0.38963,-0.41895 -0.74139,-0.76173 -0.78171,-0.76173 -0.0402,0 -0.89147,0.71605 -1.89146,1.59124 -1.96895,1.72319 -2.83478,2.21265 -4.19694,2.37255 -1.05536,0.12388 -3.45447,-0.22294 -4.02012,-0.58116 -0.22279,-0.14111 -0.54985,-0.4925 -0.7268,-0.78089 l -0.32174,-0.52436 -1.12423,0.98205 c -1.66707,1.45623 -2.2491,1.70958 -4.12908,1.79718 -4.52281,0.21073 -8.54205,-2.54658 -8.54205,-5.86008 0,-0.52121 -0.0594,-0.91766 -0.13222,-0.88103 -2.91757,1.47009 -5.18678,1.87127 -12.75081,2.25422 -3.78562,0.19165 -15.59149,0.13225 -24.13758,-0.12143 l -3.43763,-0.10203 -0.52887,0.92764 c -0.38258,0.67106 -1.3334,1.6418 -3.43762,3.50962 -1.59982,1.42007 -3.36606,2.89086 -3.92497,3.26842 -1.9528,1.31916 -4.28657,1.84032 -5.29843,1.1832 -1.35658,-0.88098 -0.29427,-3.97471 2.73316,-7.95976 0.50753,-0.66808 0.65542,-0.98767 0.51939,-1.12248 -0.10463,-0.10371 -1.04499,-0.2219 -2.0898,-0.26278 -2.26956,-0.0888 -3.72205,0.19689 -5.72734,1.12643 -1.47916,0.68566 -1.7063,0.92131 -4.28776,4.44845 -0.90472,1.23616 -1.86588,2.24206 -3.55326,3.71866 -1.27219,1.11329 -2.35897,2.02414 -2.41507,2.02414 -0.056,0 0.31145,-0.57005 0.81678,-1.26676 z m 21.96925,-5.09604 c 0.28074,-0.17198 0.24988,-1.4235 -0.0491,-1.98907 -0.32236,-0.60987 -1.27136,-1.49154 -1.99362,-1.85218 l -0.56828,-0.28374 -0.37679,0.73204 c -0.20724,0.40261 -0.41806,1.18309 -0.46851,1.73439 -0.0839,0.9176 -0.0513,1.04245 0.38677,1.47658 0.44833,0.44435 0.55377,0.46888 1.67382,0.38946 0.65746,-0.0466 1.28552,-0.14 1.39569,-0.20748 z m 75.82813,5.07202 c 1.21414,-1.24053 1.95237,-1.70298 5.57753,-3.49397 2.20238,-1.08806 9.01879,-3.87042 9.15391,-3.7365 0.0369,0.0366 -0.42647,0.5514 -1.02982,1.14395 -1.04698,1.02827 -1.22959,1.1282 -4.00573,2.19191 -4.5369,1.73835 -6.34519,2.5707 -10.04847,4.62529 l -0.79329,0.44012 z M 177.823,962.73068 c 1.07206,-1.08027 1.55056,-1.39028 4.31907,-2.79831 2.94684,-1.49872 5.63371,-2.65472 9.0191,-3.88039 l 1.49845,-0.5425 -1.18729,1.19032 c -0.8839,0.88616 -1.42447,1.27302 -2.11546,1.51393 -3.58869,1.2512 -7.9759,3.16623 -11.06478,4.82981 l -1.67474,0.90199 z m 94.57921,-0.43769 c -0.25781,-0.40538 -0.9556,-1.39979 -1.55065,-2.20978 -0.59507,-0.80999 -1.05844,-1.60073 -1.02972,-1.75719 0.0569,-0.31012 4.58624,-4.37071 4.87524,-4.37071 0.0976,0 0.22612,0.1521 0.28566,0.33801 0.0596,0.18591 0.73768,1.1884 1.50697,2.22777 0.7693,1.03936 1.40024,1.98461 1.40209,2.10055 0.003,0.21484 -4.66392,4.42401 -4.8944,4.41393 -0.0696,-0.003 -0.33739,-0.3372 -0.59519,-0.74258 z m -117.47644,-2.48434 c 0.71666,-1.6662 0.8507,-2.36013 0.93662,-4.84866 0.0708,-2.04829 0.0417,-2.57722 -0.14109,-2.57722 -0.12653,0 -0.65295,0.23656 -1.16983,0.52568 -0.51688,0.28912 -0.93669,0.46602 -0.93294,0.39313 0.004,-0.0729 0.47432,-0.52567 1.04569,-1.00617 l 1.03887,-0.87363 0.0182,-2.53354 c 0.0217,-3.02833 0.32674,-4.90308 0.99596,-6.12177 0.5495,-1.00066 4.52426,-4.62069 5.66,-5.15485 0.58223,-0.27384 2.96002,-0.93475 4.72053,-1.31208 1.12609,-0.24134 2.2122,-0.18657 3.35735,0.16934 1.90896,0.5933 4.30186,0.78275 9.8643,0.78099 5.33784,-0.002 8.47303,-0.23001 8.81443,-0.64191 0.18323,-0.22105 2.77302,-2.49558 3.29453,-2.89348 0.25829,-0.19707 0.38351,-0.13285 0.94749,0.48585 0.50983,0.55932 0.92048,0.7973 1.90596,1.10448 2.26025,0.70456 8.42101,0.46728 11.48089,-0.44216 0.69006,-0.2051 0.66932,-0.21171 -0.96959,-0.30811 -1.72083,-0.10128 -3.96697,-0.6436 -5.17068,-1.24854 -0.37144,-0.18667 -1.16473,-0.69904 -1.76288,-1.13859 -1.82793,-1.34326 -3.11093,-1.74569 -4.02303,-1.26187 -0.80087,0.42482 -0.43376,-0.0477 1.03177,-1.32811 1.81545,-1.58611 2.78902,-2.0865 3.79842,-1.95231 0.70638,0.0939 1.26334,0.40474 3.45679,1.92926 1.75095,1.21694 4.1161,1.85859 6.85647,1.8601 1.09078,5.2e-4 1.98324,0.0491 1.98324,0.10789 0,0.45058 -3.97959,4.26532 -5.47652,5.24964 -1.42904,0.9397 -4.50262,1.66155 -8.46861,1.98894 -3.46512,0.28603 -6.29018,-0.0643 -7.59503,-0.94201 l -0.60358,-0.40597 -0.69539,0.60698 c -0.90044,0.78595 -2.88014,1.69832 -4.22118,1.94538 -1.91295,0.35243 -7.68637,0.52988 -11.63122,0.35749 -2.06039,-0.09 -3.86547,-0.20905 -4.01128,-0.26451 -0.16921,-0.0643 -0.84311,0.4042 -1.86306,1.29536 -1.9917,1.74023 -2.62224,1.96443 -4.43884,1.57828 -1.67919,-0.35693 -2.41853,-1.50478 -1.66032,-2.5777 l 0.28239,-0.39959 -0.67904,0.11982 c -0.37347,0.0659 -0.74866,0.18322 -0.83376,0.26072 -0.55252,0.50313 -1.00178,5.10646 -0.73728,7.55442 l 0.1256,1.16249 2.23424,-1.10927 c 2.66483,-1.32305 8.15364,-3.81912 8.2252,-3.74046 0.0278,0.0307 -0.658,0.67218 -1.52406,1.42577 -1.61598,1.40611 -1.52855,1.35769 -7.24345,4.01211 l -1.71882,0.79836 -0.003,1.53994 c -0.002,0.84696 -0.11843,2.0796 -0.25942,2.73919 -0.41275,1.93089 -0.8365,2.4826 -3.80169,4.9498 -0.48417,0.40285 -0.56271,0.42809 -0.43928,0.1411 z m 11.37871,-20.18092 c 0,-0.0961 -0.0794,-0.17474 -0.17629,-0.17474 -0.097,0 -0.17629,0.0787 -0.17629,0.17474 0,0.0961 0.0792,0.17472 0.17629,0.17472 0.097,0 0.17629,-0.0787 0.17629,-0.17472 z m 64.62009,9.44652 c -0.41649,-0.45613 -0.39465,-1.87989 0.0437,-2.84639 0.19213,-0.42365 0.91307,-1.29494 1.66609,-2.01355 1.136,-1.08412 1.41699,-1.26678 1.94877,-1.26678 1.26861,0 1.29115,0.13972 0.19903,1.23357 -0.90785,0.90929 -1.05347,0.99368 -1.45416,0.84268 -0.5366,-0.2022 -0.73233,0.0217 -0.73628,0.84219 -0.004,0.94784 0.32775,1.44973 0.95992,1.44973 0.30442,0 0.66849,-0.0978 0.80909,-0.2173 0.14058,-0.11949 -0.1807,0.24038 -0.71397,0.79974 -1.42792,1.49776 -2.14543,1.80777 -2.72217,1.17611 z m -35.13582,-1.52643 c -0.41208,-0.0427 -0.74922,-0.14689 -0.74922,-0.23172 0,-0.0849 1.08329,-1.10374 2.40731,-2.26422 2.34954,-2.05935 2.42251,-2.10693 3.04098,-1.98271 1.16283,0.23357 8.45696,0.10957 9.97695,-0.16961 2.35969,-0.43339 2.60915,-0.59282 3.17863,-2.03145 0.27052,-0.68341 0.45929,-1.27225 0.4195,-1.30852 -0.0399,-0.0363 -0.71142,-0.38282 -1.49249,-0.77008 -0.78109,-0.38726 -1.532,-0.83769 -1.66872,-1.00098 -0.27366,-0.3268 -0.41562,-0.16422 1.85877,-2.12875 l 1.0538,-0.91023 0.0579,-4.39655 c 0.0355,-2.69335 -0.009,-4.46231 -0.11345,-4.56633 -0.11086,-0.10989 -0.42831,0.0603 -0.89986,0.48262 -0.40074,0.35882 -0.76467,0.61663 -0.80876,0.57292 -0.0816,-0.0808 5.71981,-5.17787 6.19666,-5.44436 0.14335,-0.0801 0.38591,-0.098 0.53902,-0.0398 0.24755,0.0942 0.26695,0.61346 0.17505,4.68855 -0.0568,2.52048 -0.182,4.89719 -0.27814,5.28159 -0.13017,0.52049 -0.43637,0.93015 -1.19942,1.60474 l -1.02462,0.90582 1.23402,0.56749 c 0.67872,0.3121 1.28578,0.64367 1.34903,0.73678 0.21061,0.31005 -0.98919,3.02035 -1.85318,4.18625 -0.46021,0.62104 -5.69539,5.24797 -6.94308,6.13641 -2.22026,1.58096 -4.30844,2.03668 -9.65275,2.10658 -2.23006,0.0291 -4.3918,0.0181 -4.80387,-0.0245 z m -20.69479,-1.50049 c -0.42259,-0.69584 -0.76835,-1.35639 -0.76835,-1.46789 0,-0.27838 2.39615,-2.35397 2.63132,-2.27931 0.10412,0.0331 0.54197,0.63087 0.97304,1.32846 l 0.78372,1.26836 -0.96001,0.86067 c -0.52802,0.47337 -1.16958,1.01687 -1.4257,1.20778 l -0.46566,0.34709 z m 5.09001,-0.12908 -0.84064,-1.38505 0.75248,-0.68357 c 1.16887,-1.06186 1.84722,-1.60114 2.01194,-1.59951 0.17244,0.002 1.6493,2.31726 1.6493,2.58588 0,0.16134 -2.50597,2.48788 -2.66426,2.4735 -0.0375,-0.003 -0.44649,-0.62946 -0.90882,-1.39125 z m 42.6851,0.91695 c 1.03539,-0.8583 1.12234,-1.59304 1.14767,-9.69733 0.0246,-7.87796 0.10972,-7.34534 -1.10631,-6.92519 -0.31029,0.10721 -0.59974,0.15968 -0.64322,0.11659 -0.0435,-0.0431 1.01282,-1.02366 2.34731,-2.17905 2.01961,-1.74858 2.58814,-2.14773 3.39157,-2.38116 0.53088,-0.15425 1.00805,-0.22457 1.06038,-0.15628 0.0523,0.0684 0.0485,3.46582 -0.009,7.55005 -0.094,6.74828 -0.1347,7.51339 -0.44584,8.38487 -0.31292,0.87648 -0.57743,1.16588 -3.07413,3.36349 -1.50246,1.32248 -2.84808,2.40451 -2.99025,2.40451 -0.14927,0 -0.0136,-0.20302 0.32114,-0.4805 z m -34.59636,-1.46193 c 0.97105,-0.97715 4.39312,-2.78787 7.64825,-4.04695 3.02703,-1.17085 3.06456,-1.1741 2.02733,-0.17606 -0.749,0.7207 -1.19932,0.96391 -2.99691,1.6185 -1.1635,0.42368 -3.33034,1.37236 -4.81519,2.10818 l -2.69973,1.33782 z m 85.54314,-0.0166 0.59231,-0.63082 0.16915,-3.46639 c 0.094,-1.92594 0.12142,-7.42647 0.0617,-12.37747 -0.11017,-9.1411 -0.41347,-22.30372 -0.51627,-22.40561 -0.0316,-0.0313 -1.10312,0.5838 -2.38098,1.3671 l -2.32339,1.42418 0.12552,1.50766 c 0.0691,0.82919 0.13187,5.67487 0.13967,10.76816 0.0128,8.32563 -0.0172,9.37275 -0.29582,10.37236 -0.39781,1.4269 -1.5292,3.57523 -2.37707,4.5137 -0.9684,1.07186 -5.80212,5.2485 -6.85253,5.92102 -2.7425,1.75587 -6.68174,1.93047 -8.46874,0.37536 -0.68024,-0.59197 -1.28491,-1.69492 -1.29141,-2.35565 -0.002,-0.21622 -0.0509,-0.39313 -0.10837,-0.39313 -0.0574,0 -0.59295,0.44293 -1.18995,0.98428 -2.03887,1.84886 -3.08714,2.33109 -5.86316,2.69725 -3.72876,0.4918 -7.30942,-0.79181 -8.43087,-3.02231 l -0.4538,-0.90256 v -9.13885 c 0,-5.02637 -0.0656,-9.13884 -0.14556,-9.13884 -0.08,0 -0.31978,0.18381 -0.53271,0.40847 -0.21296,0.22466 -1.1983,0.79405 -2.18966,1.26531 -1.68946,0.8031 -1.88546,0.85564 -3.12527,0.83776 -1.4118,-0.0203 -2.93476,-0.47754 -3.7763,-1.13364 -2.78556,-2.17169 -1.56751,-8.36004 2.56724,-13.04321 0.46811,-0.53018 2.44837,-2.35891 4.40058,-4.06382 3.66122,-3.19743 5.2393,-4.2838 7.47335,-5.14469 0.67869,-0.26154 1.88848,-0.81727 2.68839,-1.23495 0.79991,-0.41771 1.45438,-0.72766 1.45438,-0.68881 0,0.0389 -1.09078,1.02196 -2.42397,2.18469 -2.5136,2.19222 -3.67041,2.88385 -7.83343,4.68347 -1.19404,0.51616 -1.43007,0.6997 -2.07924,1.61697 -1.00325,1.41756 -2.08745,3.76985 -2.39018,5.18575 -0.30594,1.43084 -0.3298,3.34379 -0.0531,4.25908 0.50618,1.67453 2.18269,2.73858 4.57045,2.90078 l 1.36047,0.0924 0.0992,-1.29057 c 0.0546,-0.7098 0.14474,-3.21255 0.20045,-5.56166 0.0701,-2.95168 0.16721,-4.35065 0.31475,-4.52862 0.11742,-0.14165 1.24478,-1.15768 2.50525,-2.25787 l 2.29174,-2.00034 0.06,1.11244 c 0.033,0.61185 -0.0249,3.43193 -0.12847,6.26687 -0.10369,2.83495 -0.21,9.4003 -0.2363,14.58969 l -0.0479,9.43524 0.54861,0.96099 c 1.08765,1.90526 3.00598,2.80153 6.27345,2.93105 2.84941,0.11294 2.88451,0.0998 3.03669,-1.1373 0.0682,-0.55411 0.19682,-3.20903 0.2859,-5.89982 0.0891,-2.69079 0.2133,-5.11393 0.27607,-5.38474 0.0801,-0.34509 0.85884,-1.14541 2.60342,-2.67522 l 2.48925,-2.18282 0.11585,5.55821 c 0.12972,6.22448 0.32256,8.62688 0.76699,9.55513 0.3587,0.74921 1.32084,1.62654 2.16896,1.97776 1.01143,0.41886 2.78609,0.46479 4.17265,0.10799 l 1.23064,-0.3167 0.49309,-1.17919 c 0.83891,-2.00615 0.88356,-2.99353 0.75265,-16.64203 -0.0664,-6.9187 -0.15532,-12.61378 -0.19767,-12.65575 -0.0423,-0.042 -0.33362,0.15574 -0.64728,0.43936 -1.43358,1.29625 -1.62727,1.40113 -0.8504,0.46051 1.20493,-1.45891 6.31943,-6.02651 6.57369,-5.87077 0.0852,0.0523 0.10101,1.31468 0.0352,2.83194 l -0.11862,2.73767 0.42066,-0.35689 c 0.23136,-0.19628 1.10615,-0.96251 1.94399,-1.70273 1.32904,-1.17422 6.90369,-4.84209 7.35928,-4.84209 0.40665,0 0.67915,37.41239 0.28005,38.45018 -0.16392,0.42627 -3.97263,3.88993 -5.46061,4.96593 l -0.70515,0.50993 0.59232,-0.63082 z m -69.60932,-3.5788 c -0.388,-0.13744 -0.70515,-0.59237 -0.70515,-1.01148 0,-0.20269 0.34559,-0.70322 0.77184,-1.11783 0.68835,-0.66957 0.76293,-0.70456 0.68941,-0.32343 -0.0955,0.49564 0.63136,1.17777 1.25091,1.1738 0.21669,-9.6e-4 0.96366,-0.54354 1.7832,-1.29424 l 1.4103,-1.29184 0.4848,0.45328 c 0.74437,0.69601 0.64146,1.20751 -0.45987,2.28552 -1.08429,1.06132 -2.08353,1.36624 -2.64703,0.80772 -0.28963,-0.28704 -0.3259,-0.28351 -0.70402,0.0686 -0.38572,0.35915 -1.24326,0.47351 -1.87439,0.24995 z m 4.27011,-2.01429 c -0.21008,-0.20821 -0.44368,-0.3172 -0.51908,-0.24219 -0.0754,0.075 0.0526,0.28883 0.28451,0.47516 0.54773,0.44011 0.7305,0.25858 0.23457,-0.23297 z m -49.8319,-5.53495 c 0.092,-0.0865 0.92102,-0.80117 1.84201,-1.58816 1.53724,-1.31357 2.05035,-1.61513 6.25824,-3.67797 2.52105,-1.23588 5.41669,-2.6033 6.43474,-3.03871 l 1.85103,-0.79165 -1.23402,1.1434 c -1.72783,1.60096 -2.06314,1.82699 -4.05463,2.73312 -4.45219,2.02576 -6.8629,3.17448 -8.88317,4.23291 -2.13709,1.11963 -2.55269,1.3049 -2.2142,0.98706 z m 18.07862,-1.04814 c -0.43066,-0.42684 -0.47049,-1.01466 -0.12438,-1.83566 0.25918,-0.61484 4.23602,-4.29747 4.64079,-4.29747 0.39661,0 0.24545,0.27408 -0.56776,1.02956 -1.10553,1.02701 -1.03442,1.89421 0.18815,2.29413 0.66788,0.21847 2.07555,0.10023 2.54431,-0.21367 0.38344,-0.25679 -1.88772,1.87026 -2.80435,2.62642 -0.7241,0.59732 -0.87005,0.64519 -2.14169,0.70242 -1.19933,0.054 -1.40951,0.0169 -1.73507,-0.30573 z m 12.10199,-5.72033 c -0.16968,-0.0489 -0.30851,-0.14306 -0.30851,-0.20915 0,-0.0661 1.09512,-1.07112 2.43361,-2.23337 l 2.43361,-2.11315 1.22438,0.16725 c 1.74946,0.23898 8.16421,0.0459 9.67912,-0.29125 2.29109,-0.50998 2.2837,-0.50519 2.8019,-1.81432 0.2566,-0.64823 0.46655,-1.26583 0.46655,-1.37241 0,-0.10658 -0.43817,-0.37005 -0.97371,-0.58549 -0.53555,-0.21543 -1.30546,-0.62988 -1.71094,-0.921 l -0.7372,-0.52931 1.57871,-1.44273 1.57871,-1.44273 0.0529,-4.32184 c 0.0291,-2.37701 0.009,-4.43534 -0.0446,-4.57406 -0.0736,-0.18999 -0.31491,-0.0719 -0.97852,0.47877 -0.48447,0.40202 -0.88086,0.68778 -0.88086,0.635 0,-0.14752 5.92093,-5.30215 6.35463,-5.5322 0.25937,-0.13759 0.43987,-0.14556 0.5617,-0.0248 0.22866,0.22663 0.0695,9.32836 -0.17645,10.08657 -0.0953,0.29413 -0.59978,0.94927 -1.12084,1.45587 -0.52107,0.5066 -0.86806,0.95627 -0.7711,0.99927 0.097,0.043 0.65227,0.33291 1.23401,0.64423 1.28742,0.68894 1.29346,0.78575 0.18762,3.00545 -0.88192,1.77025 -1.52745,2.45857 -5.60578,5.97748 -2.61953,2.2602 -3.75104,2.92481 -6.06589,3.56289 -1.23866,0.34143 -1.88796,0.38717 -6.14481,0.43288 -2.61788,0.0281 -4.89862,0.0111 -5.0683,-0.0378 z m -27.26405,-2.35053 c -1.42631,-0.21812 -2.65583,-0.73848 -3.28648,-1.39089 -0.38247,-0.39568 -0.5085,-0.72058 -0.57146,-1.47317 -0.15259,-1.82355 0.57452,-3.40043 4.51324,-9.7879 1.46881,-2.382 1.76404,-2.74793 3.23878,-4.01467 0.89248,-0.76657 1.56926,-1.25579 1.50396,-1.08716 -0.0653,0.16865 -1.08852,1.89662 -2.27384,3.83996 -2.46545,4.04206 -3.31297,5.83092 -3.44469,7.27068 -0.15131,1.65397 0.67395,2.71448 2.56328,3.29389 2.00141,0.6138 9.90931,0.285 12.20261,-0.50737 0.55212,-0.19076 0.56308,-0.2149 0.4549,-1.00086 -0.0609,-0.44297 -0.15483,-1.00196 -0.20859,-1.2422 -0.0851,-0.38028 0.12317,-0.62707 1.60848,-1.90628 l 1.70624,-1.46945 2.22349,0.76207 c 1.44439,0.49503 2.53744,0.76504 3.1194,0.77054 0.88544,0.009 0.9188,-0.0114 2.85935,-1.6951 1.07991,-0.93698 2.04319,-1.70359 2.14064,-1.70359 0.0975,0 0.61983,0.30735 1.16086,0.68297 1.37171,0.95238 2.28566,1.12913 5.2707,1.01932 2.01918,-0.0743 2.70078,-0.16913 3.61995,-0.50376 0.62283,-0.22674 1.15903,-0.49306 1.19158,-0.59182 0.0343,-0.10423 -0.613,-0.27029 -1.54259,-0.39578 -1.68036,-0.22682 -3.38765,-0.80913 -6.44122,-2.19691 -0.97983,-0.44531 -1.96004,-0.80965 -2.17823,-0.80965 -0.21823,0 -0.70566,0.24249 -1.08321,0.53887 -0.70873,0.55634 -0.92083,0.46857 -0.37795,-0.15642 0.67568,-0.77787 3.83264,-3.36766 4.22381,-3.46496 0.65657,-0.16333 1.23733,0.0164 3.96102,1.22567 2.75311,1.22235 4.11062,1.6381 5.88509,1.80233 0.62423,0.0578 1.13497,0.16047 1.13497,0.22821 0,0.44495 -1.31749,1.85619 -3.49213,3.74065 -3.49836,3.03149 -4.61726,3.52314 -8.46098,3.71778 -2.10601,0.10666 -2.17609,0.12304 -2.40984,0.56334 -0.26933,0.5074 -1.11576,1.33089 -3.13281,3.04788 -1.47446,1.25513 -1.81336,1.35786 -3.16008,0.95794 -1.49904,-0.44514 -1.98514,-1.63027 -1.19532,-2.91428 0.19792,-0.32177 0.29678,-0.55352 0.21969,-0.51497 -1.18941,0.5947 -1.46173,0.65229 -2.28698,0.48365 -2.02619,-0.41404 -1.71611,-0.52534 -3.93515,1.41267 -2.16897,1.89432 -2.72697,2.24747 -4.23622,2.68109 -2.41248,0.69313 -8.75524,1.14387 -11.08427,0.78768 z m 25.89782,-5.86981 c 0,-0.63553 -0.61227,-2.15188 -0.86887,-2.15188 -0.21595,0 -0.54144,0.85006 -0.54144,1.41398 0,0.56698 0.67091,1.38165 1.13786,1.38165 0.19643,0 0.27245,-0.1796 0.27245,-0.64375 z m 26.40597,2.86599 c 0.9063,-0.92678 0.98302,-1.65437 1.01287,-9.60445 0.0147,-3.91606 -0.0283,-7.12011 -0.0955,-7.12011 -0.0673,0 -0.37039,0.0857 -0.67368,0.19052 -1.18188,0.40836 -0.88528,-0.0244 1.35493,-1.9768 1.64604,-1.4346 2.56713,-2.10931 3.14685,-2.30508 1.50209,-0.50728 1.37631,-1.12696 1.35366,6.6686 -0.0194,6.69428 -0.0949,7.86697 -0.60628,9.41538 -0.12507,0.37874 -1.0225,1.28277 -2.9053,2.92668 -1.49837,1.30824 -2.8197,2.37864 -2.93627,2.37864 -0.11659,0 0.0404,-0.25802 0.34876,-0.57338 z m -15.38794,-0.40077 c -0.097,-0.024 -0.39215,-0.0907 -0.656,-0.14835 -0.56205,-0.12268 -0.90948,-0.66437 -0.74852,-1.16702 0.14022,-0.43788 1.11244,-1.55446 1.3535,-1.55446 0.0973,0 0.13317,0.11292 0.0797,0.25094 -0.0535,0.13801 0.0629,0.45251 0.25836,0.6989 0.50447,0.63566 1.3421,0.60922 1.99174,-0.0629 l 0.49377,-0.51081 0.40566,0.46712 c 0.22312,0.25693 0.47192,0.4014 0.55288,0.32105 0.0809,-0.0804 -0.0455,-0.30095 -0.28109,-0.49023 l -0.42831,-0.34415 0.73611,-0.72959 0.73611,-0.72958 0.42332,0.43356 c 0.81632,0.83603 0.76729,1.11746 -0.39539,2.26984 -0.90432,0.8963 -1.1484,1.04669 -1.69875,1.04669 -0.35349,0 -0.80274,-0.085 -0.99836,-0.18865 -0.27033,-0.1434 -0.42614,-0.12835 -0.64949,0.0628 -0.31089,0.26596 -0.88086,0.44776 -1.17528,0.37487 z m 45.76388,-2.2088 c -0.74571,-0.39461 -1.1433,-1.10409 -1.12942,-2.01545 0.0227,-1.49078 0.57761,-2.30819 3.03226,-4.46665 3.08469,-2.71248 2.97271,-2.63506 2.5094,-1.73497 -0.55046,1.06947 -0.65776,2.12555 -0.29327,2.88684 0.41814,0.87335 0.73531,0.93777 0.98119,0.1993 0.14912,-0.44781 0.85515,-1.17483 2.69301,-2.77307 1.37,-1.19139 2.55307,-2.12807 2.62902,-2.08153 0.076,0.0466 0.14021,0.65001 0.14277,1.34107 0.003,0.81245 0.11201,1.48653 0.30849,1.90758 l 0.3039,0.65114 2.10689,-1.82447 c 1.15879,-1.00346 2.13149,-1.8001 2.16155,-1.77029 0.10528,0.10434 -1.03172,3.37588 -1.35827,3.90807 -0.30873,0.50319 -4.90352,4.67757 -5.76305,5.23577 -0.22102,0.14354 -0.54727,0.20496 -0.74995,0.14121 -0.53597,-0.16861 -1.4286,-1.12288 -1.75248,-1.87352 l -0.28593,-0.66267 -1.23402,1.06735 c -0.67872,0.58704 -1.51168,1.25174 -1.85103,1.4771 -0.77245,0.513 -1.88209,0.68829 -2.45106,0.38719 z m -75.82108,-0.45082 c 0,-0.0766 -0.36365,-0.68594 -0.80811,-1.35413 l -0.8081,-1.21489 1.29289,-1.17587 c 0.71109,-0.64673 1.37614,-1.17746 1.47788,-1.17941 0.21475,-0.004 1.67185,2.34201 1.65412,2.66335 -0.0115,0.20903 -2.47471,2.40019 -2.69817,2.40019 -0.0607,0 -0.11051,-0.0627 -0.11051,-0.13924 z m 14.68241,-7.22422 c 0.43345,-1.02822 0.50942,-2.1214 0.2373,-3.41495 -0.27049,-1.28576 -1.07095,-3.20046 -1.70969,-4.08953 l -0.38296,-0.53306 1.01681,-0.9048 c 1.31668,-1.17158 1.4769,-1.25948 1.76324,-0.96747 0.38754,0.39525 1.44059,2.61714 1.76212,3.71808 0.37209,1.27402 0.28711,3.22715 -0.17925,4.11995 -0.2862,0.5479 -1.14307,1.4044 -2.33777,2.33677 l -0.41952,0.32741 z m 13.55902,-4.5529 c -0.26129,-0.25898 -0.27408,-1.17479 -0.0256,-1.83199 0.10229,-0.27054 0.63529,-0.94398 1.18443,-1.49656 0.81283,-0.81791 1.10596,-1.00467 1.5769,-1.00467 0.31813,0 0.57845,0.0632 0.57845,0.14046 0,0.29931 -1.27634,1.34472 -1.64178,1.34472 -0.2878,0 -0.39948,0.11963 -0.44049,0.47185 -0.087,0.74812 0.26507,1.23907 0.81421,1.13503 0.4197,-0.0796 0.38579,-0.0149 -0.35793,0.68149 -0.83414,0.78114 -1.30672,0.93781 -1.68824,0.55967 z m 55.14307,-0.009 c 0,-0.0488 0.119,-0.37092 0.26444,-0.71591 0.6804,-1.614 0.15813,-4.48442 -1.23885,-6.80876 l -0.64576,-1.07443 1.1186,-1.00475 c 0.61521,-0.55262 1.23758,-0.98632 1.38303,-0.96378 0.45612,0.0707 1.91916,3.21466 2.15361,4.62797 0.23923,1.44211 0.0219,2.96182 -0.52809,3.69406 -0.33833,0.45038 -2.50698,2.39294 -2.50698,2.2456 z"
       id="path30"
       inkscape:connector-curvature="0" />
    <path
       style="fill:none;stroke:#000000;stroke-width:0.17550592"
       d="m 252.38086,894.71484 c -2.71328,1.08595 -6.22607,3.74519 -3.06445,6.40235 2.19886,3.44692 0.61842,7.29999 -2.73243,8.85156 -1.73773,1.67131 -3.95806,3.05646 -5.02148,5.30273 0.33669,-4.23478 -0.12147,-8.97738 0.50391,-12.92968 2.0724,-2.04876 9.66787,-8.20321 5.92196,-7.15513 -10.25853,2.41796 -20.17615,8.6534 -25.43173,17.96177 -1.325,4.06227 -0.35364,-1.66587 -0.60771,-3.0976 -0.74385,-3.41143 2.02346,-9.79491 -2.51143,-11.05279 -1.97527,-0.41665 -4.53766,3.45577 -5.07617,2.11718 -2.09997,-4.69888 -6.52093,1.17796 -8.72846,2.86617 -1.94134,1.70117 -5.9304,5.23272 -0.60748,4.86626 0.68292,0.46373 -6.83473,0.008 -4.17578,-1.96875 0.68122,-2.12405 2.1868,-6.24768 -1.73828,-5.92969 -2.83665,0.12383 -3.8079,3.92613 -5.30274,4.89844 -3.02939,1.17301 -7.1546,4.15795 -6.55859,7.43945 -0.53145,2.15664 -5.97246,2.42221 -2.70898,0.34375 5.20422,-2.83997 4.11332,-11.08229 -0.35352,-13.86719 -2.95521,0.39578 -7.1765,3.82417 -3.83594,6.30664 1.97872,2.82874 1.19509,7.68976 -2.08789,8.04883 -2.11717,1.23856 -4.02653,3.71254 -4.39648,5.55469 -2.95864,0.63005 -3.09793,0.13126 -0.96289,-1.76172 1.26962,-3.35478 -3.58419,-8.13816 -6.15625,-4.08984 -6.11212,1.15981 3.43474,7.59868 -2.39649,6.01171 -3.24372,-1.40927 1.47665,-5.58852 2.04883,-7.60937 1.78842,-1.87551 4.53038,-7.676 -0.18555,-6.76367 -5.31851,3.45127 -8.51886,9.69112 -10.47851,15.55273 -0.9595,5.51742 6.03588,6.81234 10.09961,6.16602 -3.19679,1.90175 -9.23762,3.81465 -9.12696,7.97265 2.05435,3.36231 6.44213,-1.66376 9.45811,-2.28986 5.7098,-1.93402 10.61126,-5.57351 13.77236,-10.77459 1.37946,1.65986 3.87236,4.32864 6.69141,2.97656 2.84848,-1.46895 5.08662,-5.72469 8.40625,-4.40429 -1.66614,0.19778 -4.65663,1.58072 -6.37109,3.70117 -1.42268,1.30071 -5.80993,5.57156 -5.38282,1.97851 -2.8413,-3.49553 -6.6578,2.0005 -8.55273,4.29297 -0.79185,1.59148 -0.26952,3.78299 1.4043,4.5586 -5.69789,-1.1319 -12.61044,-1.93165 -17.22852,2.52343 -4.43144,2.71181 -5.67393,7.8927 -5.19727,12.76954 -2.7126,1.50744 -2.82082,4.74015 0.1211,5.21874 -0.0144,2.19068 -2.08898,5.58056 0.11914,6.50586 -2.41825,2.53149 -1.19165,8.75317 2.27148,3.82813 4.36234,-2.40639 6.14609,-7.66473 10.2793,-10.07422 3.84414,-1.87839 2.37476,0.40426 1.1543,2.61719 -2.37511,3.53538 1.33519,7.8305 5.13867,6.04687 1.06212,0.61834 -0.84323,4.32141 5.65175,0.60561 5.21011,-3.61201 12.58347,-3.67833 16.41075,-9.20131 8.80976,0.14978 18.50932,0.23476 26.80078,-1.21875 2.40191,5.90538 10.9642,7.04897 15.50586,3.94727 3.7516,1.76729 8.25828,0.6643 10.94141,-2.46875 1.80072,2.14887 6.80924,2.43513 7.69921,2.89648 -3.79811,1.67952 -6.05517,5.30404 -8.0625,8.75195 6.85421,-2.21819 13.3736,-5.58147 19.93946,-8.52343 1.91207,0.73802 3.43357,7.74678 6.85547,4.99218 2.30946,-2.18842 7.49031,-4.94031 4.11718,-8.30859 -1.54485,-1.66561 -2.81958,-3.42801 0.0645,-4.3457 5.80005,-4.57683 12.78702,-9.90452 12.27343,-18.1836 -0.18464,-11.37834 1.04661,-22.99359 -0.57948,-34.24769 -2.92018,-0.0419 -6.5416,4.19665 -9.06895,6.97035 0.14359,-2.43813 0.1487,-8.05258 -3.60938,-5.8125 -2.07242,0.92372 -4.75161,3.4523 -6.1914,3.70312 0.29725,-4.6319 -4.72179,-2.34288 -6.34766,0.0586 -1.92201,1.45975 -3.462,4.24388 -4.72151,3.00499 -2.29206,0.34539 -3.7869,3.94436 -4.65797,0.34522 -1.74821,-0.19935 2.03898,-2.9956 1.12362,-5.21545 -0.30259,-2.71547 -1.35344,-7.46215 -4.55664,-7.66211 z M 232.9668,907.7168 c -0.77313,3.03175 0.28026,7.46892 -0.84375,9.63281 -4.24292,-1.10767 -0.79839,-7.66301 0.84375,-9.63281 z m 18.50976,1.51562 c -0.3583,1.68541 -2.7985,-1.34885 0,0 z m 20.90235,5.09766 c 0.0807,9.86953 0.67266,19.85017 -0.0215,29.6582 -5.11583,5.4917 -0.86866,6.05655 3.50391,2.52344 3.17894,-2.48177 6.88398,-5.30596 5.68555,-9.91406 0.47172,-8.1891 -0.75891,-17.60447 0.42773,-25.07618 -0.59816,10.66884 1.50546,21.79033 -1.23633,32.08985 -2.51621,5.11314 -10.82136,3.43136 -12.6914,8.60547 -0.8308,-3.4911 -4.54229,-1.06537 -7.70704,-1.79297 -2.43954,0.64243 -7.14203,-2.80452 -5.39453,-4.63672 6.52474,-0.11476 11.6948,-5.57912 15.21094,-10.53711 3.21572,-7.22219 0.81562,-15.5732 1.43555,-23.23438 -0.0857,-4.62249 1.26718,0.0653 0.78711,2.31446 z m -10.64844,-2.01563 c 1.99558,1.92113 0.24069,9.40905 0.89844,13.27539 -0.62506,3.59102 1.45054,9.23459 -1.4043,11.71289 -5.88987,1.26182 -3.62386,-6.62764 -4.21875,-9.83203 0.23308,-4.44334 -1.80906,-9.73069 2.79102,-12.3789 0.9036,-0.68625 1.07335,-4.2888 1.93359,-2.77735 z m -74.12109,5.63086 c 1.27607,1.90545 -4.51539,0.38767 0,0 z m 33.49609,0.45117 c -0.76679,3.00313 2.05792,6.0884 3.48242,7.15235 -1.43165,0.6462 -4.5059,5.35793 -3.65183,1.39302 0.41279,-2.48345 -0.0744,-5.79041 -0.53762,-7.60787 0.23801,-0.23613 0.6397,-0.81117 0.70703,-0.9375 z m 20.47265,1.13086 c 1.55577,3.46608 5.99439,1.80948 7.87891,0.28125 1.22671,2.10544 5.76323,0.3409 1.60938,2.84375 -5.4049,2.97376 -2.71127,10.06337 -3.89844,14.6211 -3.84919,0.57909 -7.3548,-2.2092 -5.76887,-6.44917 0.0684,-3.6091 -0.0669,-8.33468 0.17902,-11.29693 z m -28.91015,0.54688 c -1.70508,1.85923 -0.0692,4.2429 -2.23828,5.5957 -5.84568,3.25382 5.09268,3.34957 -0.42383,3.74414 -1.97384,0.0247 -4.86297,-0.48571 -5.97461,-1.83398 3.03479,-1.94469 6.74237,-5.50059 8.63672,-7.50586 z m -31.08008,0.46484 c -0.68655,0.0856 0.0509,-0.77678 0,0 z m -1.08203,0.8418 c 0.33258,0.61481 -1.07139,0.54927 0,0 z m 51.83398,5.67187 c -0.19888,4.7439 0.34655,10.82191 -0.008,14.7461 -1.09615,1.11979 -4.23804,4.24657 -2.19922,1.24023 1.93142,-5.56652 0.26411,-12.11665 1.15821,-17.61914 1.69791,-1.58424 0.79954,0.93016 1.04882,1.63281 z m -45.65039,1.01172 c 0.89191,3.26369 7.81738,-0.63837 5.74024,3.09571 -2.06415,1.78671 -4.93708,5.0106 -8.56641,4.04687 -1.88147,-0.0649 -4.7181,0.55989 -1.94922,-0.91601 2.16402,-1.64847 4.04757,-3.74576 4.77539,-6.22657 z m 35.21485,4.23243 c -0.32803,4.0276 1.07776,9.39957 -0.58594,13.24414 -1.75005,3.63679 -7.34987,1.30707 -10.82422,2.15039 4.1959,-3.51738 11.14423,-7.36574 10.30078,-13.71875 -1.81358,-0.39258 -0.026,-2.82705 1.10938,-1.67578 z m -26.20703,0.41601 c 4.9548,1.50361 -2.53096,0.78642 0,0 z m -29.21094,5.12891 c 5.98673,5.81197 -7.618,3.08502 0,0 z m 42.38086,0.48242 c 3.03068,1.81575 -2.72016,4.73178 -1.91797,1.25586 0.69379,-0.28736 0.92236,-1.69588 1.91797,-1.25586 z m -18.76953,1.5918 c 2.21533,0.61768 2.62705,0.83603 0.17578,1.78906 -2.20379,0.19001 -4.39888,4.92128 -5.01953,1.61133 -2.36102,-2.0163 3.89186,-1.81159 4.84375,-3.40039 z m 11.43554,0.5 c 0.17943,1.80015 -2.43004,-0.14715 0,0 z m 38.3711,0.85937 c -1.01716,1.42926 -0.38032,-0.9842 0,0 z m -69.84961,0.87109 c -0.88433,0.43205 -0.57888,-0.25108 0,0 z m 3.59375,0.1875 c -1.79129,1.08829 -1.3026,3.30549 -0.45703,4.59766 -4.75066,0.19374 -9.23906,5.49702 -11.84961,6.67578 -0.19238,-4.12467 6.30948,-3.38679 8.38476,-6.49023 2.00115,-0.97461 2.37124,-3.86851 3.92188,-4.78321 z m 75.91992,1.02149 c 3.03888,2.35877 -3.74766,3.71627 -4.19922,6.59765 -1.18481,3.04245 -2.14699,-2.23059 -2.52344,-3.5 -0.24186,-1.65615 3.98047,-0.70632 5.30469,-2.23242 0.46376,-0.17888 1.06621,-0.92071 1.41797,-0.86523 z m -88.23828,1.13867 c 3.72548,0.37272 -1.32522,2.97149 0,0 z m 76.67969,0.76367 c 3.98443,0.10149 -1.80431,2.48824 -2.36379,3.81591 -0.49841,1.4764 -3.71065,3.41277 -2.13231,1.61964 2.22132,-1.14742 3.10531,-4.27928 4.4961,-5.43555 z m -44.17383,0.39649 c -0.82242,3.03435 -6.54529,1.77063 -1.62305,0.44726 0.12758,0.0977 3.33832,-1.8099 1.62305,-0.44726 z m -9.52735,1.58984 c -0.41354,0.0748 0.7049,-0.65305 0,0 z m -2.95507,4.21484 c -2.60111,-2.12266 3.54155,-2.20501 0,0 z m 18.19726,-0.0215 c -1.98921,1.6116 -0.15164,-1.57305 0,0 z m -13.38476,4.41602 c -1.52141,0.47259 -5.1024,2.84496 -2.43946,0.24414 0.34077,-0.85534 1.75745,0.0294 2.43946,-0.24414 z"
       id="path180"
       inkscape:connector-curvature="0" />
    <path
       inkscape:connector-curvature="0"
       id="path208"
       d="m 155.59367,963.34688 c 1.72554,-2.37909 3.44642,-4.41823 4.8322,-5.72595 2.36019,-2.2272 6.37106,-5.63252 7.72331,-6.55723 2.6211,-1.79242 5.9674,-2.64229 8.55633,-2.17309 0.63023,0.11423 3.88276,0.26958 7.22783,0.34526 3.34508,0.0757 10.1717,0.24033 15.17028,0.36592 16.47,0.41381 26.38426,-0.32743 28.45248,-2.12726 0.32125,-0.27955 0.61823,-0.50828 0.65998,-0.50828 0.0417,0 0.0784,0.49141 0.0815,1.09203 0.01,1.82434 0.86225,3.25002 2.64612,4.42359 1.05339,0.69301 3.02908,1.39824 4.20146,1.49975 l 0.70515,0.061 0.0881,-1.32169 0.0881,-1.32169 2.44215,-2.14025 c 1.34319,-1.17715 2.47721,-2.10552 2.52006,-2.06305 0.0428,0.0424 0.2343,0.73545 0.42542,1.53995 0.44194,1.86015 0.96757,3.16398 1.45649,3.61279 0.46035,0.42259 1.45154,0.70003 2.74854,0.76931 l 0.9545,0.051 0.38444,-1.50034 c 0.42642,-1.66408 0.20227,-1.39329 3.58012,-4.32508 0.90346,-0.78415 1.71658,-1.42573 1.80696,-1.42573 0.0904,0 0.16431,0.26091 0.16431,0.57982 0,1.86663 1.40974,3.86479 3.40735,4.82956 2.00627,0.96894 3.03203,1.14393 6.64111,1.13292 2.85087,-0.009 3.54615,-0.0697 5.5244,-0.48461 3.2941,-0.69088 6.1677,-1.68893 9.42727,-3.27422 3.33396,-1.62148 4.02225,-2.19792 5.02084,-4.20486 1.44411,-2.90237 1.5798,-4.96667 1.50562,-22.90576 -0.0325,-7.85788 -0.088,-14.28716 -0.12338,-14.28726 -0.0354,-1.1e-4 -0.70967,0.5572 -1.49846,1.23845 -2.04659,1.76762 -2.41282,1.8452 -0.61071,0.12937 0.84071,-0.80045 1.67266,-1.71381 1.84879,-2.02966 0.26178,-0.46951 4.90564,-4.73624 5.31745,-4.88564 0.21634,-0.0785 0.24219,28.93884 0.0281,31.63065 -0.37551,4.72302 -0.90964,6.44824 -2.73803,8.84374 -0.89483,1.17237 -7.1742,6.81143 -9.21569,8.27592 -4.21212,3.02167 -10.26695,5.39249 -15.98472,6.25898 -2.29002,0.34702 -6.26217,0.26261 -7.9002,-0.16791 -1.77937,-0.46765 -3.29059,-1.27389 -4.17959,-2.22979 -0.38963,-0.41895 -0.74139,-0.76173 -0.78171,-0.76173 -0.0402,0 -0.89147,0.71605 -1.89146,1.59124 -1.96895,1.72319 -2.83478,2.21265 -4.19694,2.37255 -1.05536,0.12388 -3.45447,-0.22294 -4.02012,-0.58116 -0.22279,-0.14111 -0.54985,-0.4925 -0.7268,-0.78089 l -0.32174,-0.52436 -1.12423,0.98205 c -1.66707,1.45623 -2.2491,1.70958 -4.12908,1.79718 -4.52281,0.21073 -8.54205,-2.54658 -8.54205,-5.86008 0,-0.52121 -0.0594,-0.91766 -0.13222,-0.88103 -2.91757,1.47009 -5.18678,1.87127 -12.75081,2.25422 -3.78562,0.19165 -15.59149,0.13225 -24.13758,-0.12143 l -3.43763,-0.10203 -0.52887,0.92764 c -0.38258,0.67106 -1.3334,1.6418 -3.43762,3.50962 -1.59982,1.42007 -3.36606,2.89086 -3.92497,3.26842 -1.9528,1.31916 -4.28657,1.84032 -5.29843,1.1832 -1.35658,-0.88098 -0.29427,-3.97471 2.73316,-7.95976 0.50753,-0.66808 0.65542,-0.98767 0.51939,-1.12248 -0.10463,-0.10371 -1.04499,-0.2219 -2.0898,-0.26278 -2.26956,-0.0888 -3.72205,0.19689 -5.72734,1.12643 -1.47916,0.68566 -1.7063,0.92131 -4.28776,4.44845 -0.90472,1.23616 -1.86588,2.24206 -3.55326,3.71866 -1.27219,1.11329 -2.35897,2.02414 -2.41507,2.02414 -0.056,0 0.31145,-0.57005 0.81678,-1.26676 z m 21.96925,-5.09604 c 0.28074,-0.17198 0.24988,-1.4235 -0.0491,-1.98907 -0.32236,-0.60987 -1.27136,-1.49154 -1.99362,-1.85218 l -0.56828,-0.28374 -0.37679,0.73204 c -0.20724,0.40261 -0.41806,1.18309 -0.46851,1.73439 -0.0839,0.9176 -0.0513,1.04245 0.38677,1.47658 0.44833,0.44435 0.55377,0.46888 1.67382,0.38946 0.65746,-0.0466 1.28552,-0.14 1.39569,-0.20748 z m 75.82813,5.07202 c 1.21414,-1.24053 1.95237,-1.70298 5.57753,-3.49397 2.20238,-1.08806 9.01879,-3.87042 9.15391,-3.7365 0.0369,0.0366 -0.42647,0.5514 -1.02982,1.14395 -1.04698,1.02827 -1.22959,1.1282 -4.00573,2.19191 -4.5369,1.73835 -6.34519,2.5707 -10.04847,4.62529 l -0.79329,0.44012 z M 177.823,962.73068 c 1.07206,-1.08027 1.55056,-1.39028 4.31907,-2.79831 2.94684,-1.49872 5.63371,-2.65472 9.0191,-3.88039 l 1.49845,-0.5425 -1.18729,1.19032 c -0.8839,0.88616 -1.42447,1.27302 -2.11546,1.51393 -3.58869,1.2512 -7.9759,3.16623 -11.06478,4.82981 l -1.67474,0.90199 z m 94.57921,-0.43769 c -0.25781,-0.40538 -0.9556,-1.39979 -1.55065,-2.20978 -0.59507,-0.80999 -1.05844,-1.60073 -1.02972,-1.75719 0.0569,-0.31012 4.58624,-4.37071 4.87524,-4.37071 0.0976,0 0.22612,0.1521 0.28566,0.33801 0.0596,0.18591 0.73768,1.1884 1.50697,2.22777 0.7693,1.03936 1.40024,1.98461 1.40209,2.10055 0.003,0.21484 -4.66392,4.42401 -4.8944,4.41393 -0.0696,-0.003 -0.33739,-0.3372 -0.59519,-0.74258 z m -117.47644,-2.48434 c 0.71666,-1.6662 0.8507,-2.36013 0.93662,-4.84866 0.0708,-2.04829 0.0417,-2.57722 -0.14109,-2.57722 -0.12653,0 -0.65295,0.23656 -1.16983,0.52568 -0.51688,0.28912 -0.93669,0.46602 -0.93294,0.39313 0.004,-0.0729 0.47432,-0.52567 1.04569,-1.00617 l 1.03887,-0.87363 0.0182,-2.53354 c 0.0217,-3.02833 0.32674,-4.90308 0.99596,-6.12177 0.5495,-1.00066 4.52426,-4.62069 5.66,-5.15485 0.58223,-0.27384 2.96002,-0.93475 4.72053,-1.31208 1.12609,-0.24134 2.2122,-0.18657 3.35735,0.16934 1.90896,0.5933 4.30186,0.78275 9.8643,0.78099 5.33784,-0.002 8.47303,-0.23001 8.81443,-0.64191 0.18323,-0.22105 2.77302,-2.49558 3.29453,-2.89348 0.25829,-0.19707 0.38351,-0.13285 0.94749,0.48585 0.50983,0.55932 0.92048,0.7973 1.90596,1.10448 2.26025,0.70456 8.42101,0.46728 11.48089,-0.44216 0.69006,-0.2051 0.66932,-0.21171 -0.96959,-0.30811 -1.72083,-0.10128 -3.96697,-0.6436 -5.17068,-1.24854 -0.37144,-0.18667 -1.16473,-0.69904 -1.76288,-1.13859 -1.82793,-1.34326 -3.11093,-1.74569 -4.02303,-1.26187 -0.80087,0.42482 -0.43376,-0.0477 1.03177,-1.32811 1.81545,-1.58611 2.78902,-2.0865 3.79842,-1.95231 0.70638,0.0939 1.26334,0.40474 3.45679,1.92926 1.75095,1.21694 4.1161,1.85859 6.85647,1.8601 1.09078,5.2e-4 1.98324,0.0491 1.98324,0.10789 0,0.45058 -3.97959,4.26532 -5.47652,5.24964 -1.42904,0.9397 -4.50262,1.66155 -8.46861,1.98894 -3.46512,0.28603 -6.29018,-0.0643 -7.59503,-0.94201 l -0.60358,-0.40597 -0.69539,0.60698 c -0.90044,0.78595 -2.88014,1.69832 -4.22118,1.94538 -1.91295,0.35243 -7.68637,0.52988 -11.63122,0.35749 -2.06039,-0.09 -3.86547,-0.20905 -4.01128,-0.26451 -0.16921,-0.0643 -0.84311,0.4042 -1.86306,1.29536 -1.9917,1.74023 -2.62224,1.96443 -4.43884,1.57828 -1.67919,-0.35693 -2.41853,-1.50478 -1.66032,-2.5777 l 0.28239,-0.39959 -0.67904,0.11982 c -0.37347,0.0659 -0.74866,0.18322 -0.83376,0.26072 -0.55252,0.50313 -1.00178,5.10646 -0.73728,7.55442 l 0.1256,1.16249 2.23424,-1.10927 c 2.66483,-1.32305 8.15364,-3.81912 8.2252,-3.74046 0.0278,0.0307 -0.658,0.67218 -1.52406,1.42577 -1.61598,1.40611 -1.52855,1.35769 -7.24345,4.01211 l -1.71882,0.79836 -0.003,1.53994 c -0.002,0.84696 -0.11843,2.0796 -0.25942,2.73919 -0.41275,1.93089 -0.8365,2.4826 -3.80169,4.9498 -0.48417,0.40285 -0.56271,0.42809 -0.43928,0.1411 z m 11.37871,-20.18092 c 0,-0.0961 -0.0794,-0.17474 -0.17629,-0.17474 -0.097,0 -0.17629,0.0787 -0.17629,0.17474 0,0.0961 0.0792,0.17472 0.17629,0.17472 0.097,0 0.17629,-0.0787 0.17629,-0.17472 z m 64.62009,9.44652 c -0.41649,-0.45613 -0.39465,-1.87989 0.0437,-2.84639 0.19213,-0.42365 0.91307,-1.29494 1.66609,-2.01355 1.136,-1.08412 1.41699,-1.26678 1.94877,-1.26678 1.26861,0 1.29115,0.13972 0.19903,1.23357 -0.90785,0.90929 -1.05347,0.99368 -1.45416,0.84268 -0.5366,-0.2022 -0.73233,0.0217 -0.73628,0.84219 -0.004,0.94784 0.32775,1.44973 0.95992,1.44973 0.30442,0 0.66849,-0.0978 0.80909,-0.2173 0.14058,-0.11949 -0.1807,0.24038 -0.71397,0.79974 -1.42792,1.49776 -2.14543,1.80777 -2.72217,1.17611 z m -35.13582,-1.52643 c -0.41208,-0.0427 -0.74922,-0.14689 -0.74922,-0.23172 0,-0.0849 1.08329,-1.10374 2.40731,-2.26422 2.34954,-2.05935 2.42251,-2.10693 3.04098,-1.98271 1.16283,0.23357 8.45696,0.10957 9.97695,-0.16961 2.35969,-0.43339 2.60915,-0.59282 3.17863,-2.03145 0.27052,-0.68341 0.45929,-1.27225 0.4195,-1.30852 -0.0399,-0.0363 -0.71142,-0.38282 -1.49249,-0.77008 -0.78109,-0.38726 -1.532,-0.83769 -1.66872,-1.00098 -0.27366,-0.3268 -0.41562,-0.16422 1.85877,-2.12875 l 1.0538,-0.91023 0.0579,-4.39655 c 0.0355,-2.69335 -0.009,-4.46231 -0.11345,-4.56633 -0.11086,-0.10989 -0.42831,0.0603 -0.89986,0.48262 -0.40074,0.35882 -0.76467,0.61663 -0.80876,0.57292 -0.0816,-0.0808 5.71981,-5.17787 6.19666,-5.44436 0.14335,-0.0801 0.38591,-0.098 0.53902,-0.0398 0.24755,0.0942 0.26695,0.61346 0.17505,4.68855 -0.0568,2.52048 -0.182,4.89719 -0.27814,5.28159 -0.13017,0.52049 -0.43637,0.93015 -1.19942,1.60474 l -1.02462,0.90582 1.23402,0.56749 c 0.67872,0.3121 1.28578,0.64367 1.34903,0.73678 0.21061,0.31005 -0.98919,3.02035 -1.85318,4.18625 -0.46021,0.62104 -5.69539,5.24797 -6.94308,6.13641 -2.22026,1.58096 -4.30844,2.03668 -9.65275,2.10658 -2.23006,0.0291 -4.3918,0.0181 -4.80387,-0.0245 z m -20.69479,-1.50049 c -0.42259,-0.69584 -0.76835,-1.35639 -0.76835,-1.46789 0,-0.27838 2.39615,-2.35397 2.63132,-2.27931 0.10412,0.0331 0.54197,0.63087 0.97304,1.32846 l 0.78372,1.26836 -0.96001,0.86067 c -0.52802,0.47337 -1.16958,1.01687 -1.4257,1.20778 l -0.46566,0.34709 z m 5.09001,-0.12908 -0.84064,-1.38505 0.75248,-0.68357 c 1.16887,-1.06186 1.84722,-1.60114 2.01194,-1.59951 0.17244,0.002 1.6493,2.31726 1.6493,2.58588 0,0.16134 -2.50597,2.48788 -2.66426,2.4735 -0.0375,-0.003 -0.44649,-0.62946 -0.90882,-1.39125 z m 42.6851,0.91695 c 1.03539,-0.8583 1.12234,-1.59304 1.14767,-9.69733 0.0246,-7.87796 0.10972,-7.34534 -1.10631,-6.92519 -0.31029,0.10721 -0.59974,0.15968 -0.64322,0.11659 -0.0435,-0.0431 1.01282,-1.02366 2.34731,-2.17905 2.01961,-1.74858 2.58814,-2.14773 3.39157,-2.38116 0.53088,-0.15425 1.00805,-0.22457 1.06038,-0.15628 0.0523,0.0684 0.0485,3.46582 -0.009,7.55005 -0.094,6.74828 -0.1347,7.51339 -0.44584,8.38487 -0.31292,0.87648 -0.57743,1.16588 -3.07413,3.36349 -1.50246,1.32248 -2.84808,2.40451 -2.99025,2.40451 -0.14927,0 -0.0136,-0.20302 0.32114,-0.4805 z m -34.59636,-1.46193 c 0.97105,-0.97715 4.39312,-2.78787 7.64825,-4.04695 3.02703,-1.17085 3.06456,-1.1741 2.02733,-0.17606 -0.749,0.7207 -1.19932,0.96391 -2.99691,1.6185 -1.1635,0.42368 -3.33034,1.37236 -4.81519,2.10818 l -2.69973,1.33782 z m 85.54314,-0.0166 0.59231,-0.63082 0.16915,-3.46639 c 0.094,-1.92594 0.12142,-7.42647 0.0617,-12.37747 -0.11017,-9.1411 -0.41347,-22.30372 -0.51627,-22.40561 -0.0316,-0.0313 -1.10312,0.5838 -2.38098,1.3671 l -2.32339,1.42418 0.12552,1.50766 c 0.0691,0.82919 0.13187,5.67487 0.13967,10.76816 0.0128,8.32563 -0.0172,9.37275 -0.29582,10.37236 -0.39781,1.4269 -1.5292,3.57523 -2.37707,4.5137 -0.9684,1.07186 -5.80212,5.2485 -6.85253,5.92102 -2.7425,1.75587 -6.68174,1.93047 -8.46874,0.37536 -0.68024,-0.59197 -1.28491,-1.69492 -1.29141,-2.35565 -0.002,-0.21622 -0.0509,-0.39313 -0.10837,-0.39313 -0.0574,0 -0.59295,0.44293 -1.18995,0.98428 -2.03887,1.84886 -3.08714,2.33109 -5.86316,2.69725 -3.72876,0.4918 -7.30942,-0.79181 -8.43087,-3.02231 l -0.4538,-0.90256 v -9.13885 c 0,-5.02637 -0.0656,-9.13884 -0.14556,-9.13884 -0.08,0 -0.31978,0.18381 -0.53271,0.40847 -0.21296,0.22466 -1.1983,0.79405 -2.18966,1.26531 -1.68946,0.8031 -1.88546,0.85564 -3.12527,0.83776 -1.4118,-0.0203 -2.93476,-0.47754 -3.7763,-1.13364 -2.78556,-2.17169 -1.56751,-8.36004 2.56724,-13.04321 0.46811,-0.53018 2.44837,-2.35891 4.40058,-4.06382 3.66122,-3.19743 5.2393,-4.2838 7.47335,-5.14469 0.67869,-0.26154 1.88848,-0.81727 2.68839,-1.23495 0.79991,-0.41771 1.45438,-0.72766 1.45438,-0.68881 0,0.0389 -1.09078,1.02196 -2.42397,2.18469 -2.5136,2.19222 -3.67041,2.88385 -7.83343,4.68347 -1.19404,0.51616 -1.43007,0.6997 -2.07924,1.61697 -1.00325,1.41756 -2.08745,3.76985 -2.39018,5.18575 -0.30594,1.43084 -0.3298,3.34379 -0.0531,4.25908 0.50618,1.67453 2.18269,2.73858 4.57045,2.90078 l 1.36047,0.0924 0.0992,-1.29057 c 0.0546,-0.7098 0.14474,-3.21255 0.20045,-5.56166 0.0701,-2.95168 0.16721,-4.35065 0.31475,-4.52862 0.11742,-0.14165 1.24478,-1.15768 2.50525,-2.25787 l 2.29174,-2.00034 0.06,1.11244 c 0.033,0.61185 -0.0249,3.43193 -0.12847,6.26687 -0.10369,2.83495 -0.21,9.4003 -0.2363,14.58969 l -0.0479,9.43524 0.54861,0.96099 c 1.08765,1.90526 3.00598,2.80153 6.27345,2.93105 2.84941,0.11294 2.88451,0.0998 3.03669,-1.1373 0.0682,-0.55411 0.19682,-3.20903 0.2859,-5.89982 0.0891,-2.69079 0.2133,-5.11393 0.27607,-5.38474 0.0801,-0.34509 0.85884,-1.14541 2.60342,-2.67522 l 2.48925,-2.18282 0.11585,5.55821 c 0.12972,6.22448 0.32256,8.62688 0.76699,9.55513 0.3587,0.74921 1.32084,1.62654 2.16896,1.97776 1.01143,0.41886 2.78609,0.46479 4.17265,0.10799 l 1.23064,-0.3167 0.49309,-1.17919 c 0.83891,-2.00615 0.88356,-2.99353 0.75265,-16.64203 -0.0664,-6.9187 -0.15532,-12.61378 -0.19767,-12.65575 -0.0423,-0.042 -0.33362,0.15574 -0.64728,0.43936 -1.43358,1.29625 -1.62727,1.40113 -0.8504,0.46051 1.20493,-1.45891 6.31943,-6.02651 6.57369,-5.87077 0.0852,0.0523 0.10101,1.31468 0.0352,2.83194 l -0.11862,2.73767 0.42066,-0.35689 c 0.23136,-0.19628 1.10615,-0.96251 1.94399,-1.70273 1.32904,-1.17422 6.90369,-4.84209 7.35928,-4.84209 0.40665,0 0.67915,37.41239 0.28005,38.45018 -0.16392,0.42627 -3.97263,3.88993 -5.46061,4.96593 l -0.70515,0.50993 0.59232,-0.63082 z m -69.60932,-3.5788 c -0.388,-0.13744 -0.70515,-0.59237 -0.70515,-1.01148 0,-0.20269 0.34559,-0.70322 0.77184,-1.11783 0.68835,-0.66957 0.76293,-0.70456 0.68941,-0.32343 -0.0955,0.49564 0.63136,1.17777 1.25091,1.1738 0.21669,-9.6e-4 0.96366,-0.54354 1.7832,-1.29424 l 1.4103,-1.29184 0.4848,0.45328 c 0.74437,0.69601 0.64146,1.20751 -0.45987,2.28552 -1.08429,1.06132 -2.08353,1.36624 -2.64703,0.80772 -0.28963,-0.28704 -0.3259,-0.28351 -0.70402,0.0686 -0.38572,0.35915 -1.24326,0.47351 -1.87439,0.24995 z m 4.27011,-2.01429 c -0.21008,-0.20821 -0.44368,-0.3172 -0.51908,-0.24219 -0.0754,0.075 0.0526,0.28883 0.28451,0.47516 0.54773,0.44011 0.7305,0.25858 0.23457,-0.23297 z m -49.8319,-5.53495 c 0.092,-0.0865 0.92102,-0.80117 1.84201,-1.58816 1.53724,-1.31357 2.05035,-1.61513 6.25824,-3.67797 2.52105,-1.23588 5.41669,-2.6033 6.43474,-3.03871 l 1.85103,-0.79165 -1.23402,1.1434 c -1.72783,1.60096 -2.06314,1.82699 -4.05463,2.73312 -4.45219,2.02576 -6.8629,3.17448 -8.88317,4.23291 -2.13709,1.11963 -2.55269,1.3049 -2.2142,0.98706 z m 18.07862,-1.04814 c -0.43066,-0.42684 -0.47049,-1.01466 -0.12438,-1.83566 0.25918,-0.61484 4.23602,-4.29747 4.64079,-4.29747 0.39661,0 0.24545,0.27408 -0.56776,1.02956 -1.10553,1.02701 -1.03442,1.89421 0.18815,2.29413 0.66788,0.21847 2.07555,0.10023 2.54431,-0.21367 0.38344,-0.25679 -1.88772,1.87026 -2.80435,2.62642 -0.7241,0.59732 -0.87005,0.64519 -2.14169,0.70242 -1.19933,0.054 -1.40951,0.0169 -1.73507,-0.30573 z m 12.10199,-5.72033 c -0.16968,-0.0489 -0.30851,-0.14306 -0.30851,-0.20915 0,-0.0661 1.09512,-1.07112 2.43361,-2.23337 l 2.43361,-2.11315 1.22438,0.16725 c 1.74946,0.23898 8.16421,0.0459 9.67912,-0.29125 2.29109,-0.50998 2.2837,-0.50519 2.8019,-1.81432 0.2566,-0.64823 0.46655,-1.26583 0.46655,-1.37241 0,-0.10658 -0.43817,-0.37005 -0.97371,-0.58549 -0.53555,-0.21543 -1.30546,-0.62988 -1.71094,-0.921 l -0.7372,-0.52931 1.57871,-1.44273 1.57871,-1.44273 0.0529,-4.32184 c 0.0291,-2.37701 0.009,-4.43534 -0.0446,-4.57406 -0.0736,-0.18999 -0.31491,-0.0719 -0.97852,0.47877 -0.48447,0.40202 -0.88086,0.68778 -0.88086,0.635 0,-0.14752 5.92093,-5.30215 6.35463,-5.5322 0.25937,-0.13759 0.43987,-0.14556 0.5617,-0.0248 0.22866,0.22663 0.0695,9.32836 -0.17645,10.08657 -0.0953,0.29413 -0.59978,0.94927 -1.12084,1.45587 -0.52107,0.5066 -0.86806,0.95627 -0.7711,0.99927 0.097,0.043 0.65227,0.33291 1.23401,0.64423 1.28742,0.68894 1.29346,0.78575 0.18762,3.00545 -0.88192,1.77025 -1.52745,2.45857 -5.60578,5.97748 -2.61953,2.2602 -3.75104,2.92481 -6.06589,3.56289 -1.23866,0.34143 -1.88796,0.38717 -6.14481,0.43288 -2.61788,0.0281 -4.89862,0.0111 -5.0683,-0.0378 z m -27.26405,-2.35053 c -1.42631,-0.21812 -2.65583,-0.73848 -3.28648,-1.39089 -0.38247,-0.39568 -0.5085,-0.72058 -0.57146,-1.47317 -0.15259,-1.82355 0.57452,-3.40043 4.51324,-9.7879 1.46881,-2.382 1.76404,-2.74793 3.23878,-4.01467 0.89248,-0.76657 1.56926,-1.25579 1.50396,-1.08716 -0.0653,0.16865 -1.08852,1.89662 -2.27384,3.83996 -2.46545,4.04206 -3.31297,5.83092 -3.44469,7.27068 -0.15131,1.65397 0.67395,2.71448 2.56328,3.29389 2.00141,0.6138 9.90931,0.285 12.20261,-0.50737 0.55212,-0.19076 0.56308,-0.2149 0.4549,-1.00086 -0.0609,-0.44297 -0.15483,-1.00196 -0.20859,-1.2422 -0.0851,-0.38028 0.12317,-0.62707 1.60848,-1.90628 l 1.70624,-1.46945 2.22349,0.76207 c 1.44439,0.49503 2.53744,0.76504 3.1194,0.77054 0.88544,0.009 0.9188,-0.0114 2.85935,-1.6951 1.07991,-0.93698 2.04319,-1.70359 2.14064,-1.70359 0.0975,0 0.61983,0.30735 1.16086,0.68297 1.37171,0.95238 2.28566,1.12913 5.2707,1.01932 2.01918,-0.0743 2.70078,-0.16913 3.61995,-0.50376 0.62283,-0.22674 1.15903,-0.49306 1.19158,-0.59182 0.0343,-0.10423 -0.613,-0.27029 -1.54259,-0.39578 -1.68036,-0.22682 -3.38765,-0.80913 -6.44122,-2.19691 -0.97983,-0.44531 -1.96004,-0.80965 -2.17823,-0.80965 -0.21823,0 -0.70566,0.24249 -1.08321,0.53887 -0.70873,0.55634 -0.92083,0.46857 -0.37795,-0.15642 0.67568,-0.77787 3.83264,-3.36766 4.22381,-3.46496 0.65657,-0.16333 1.23733,0.0164 3.96102,1.22567 2.75311,1.22235 4.11062,1.6381 5.88509,1.80233 0.62423,0.0578 1.13497,0.16047 1.13497,0.22821 0,0.44495 -1.31749,1.85619 -3.49213,3.74065 -3.49836,3.03149 -4.61726,3.52314 -8.46098,3.71778 -2.10601,0.10666 -2.17609,0.12304 -2.40984,0.56334 -0.26933,0.5074 -1.11576,1.33089 -3.13281,3.04788 -1.47446,1.25513 -1.81336,1.35786 -3.16008,0.95794 -1.49904,-0.44514 -1.98514,-1.63027 -1.19532,-2.91428 0.19792,-0.32177 0.29678,-0.55352 0.21969,-0.51497 -1.18941,0.5947 -1.46173,0.65229 -2.28698,0.48365 -2.02619,-0.41404 -1.71611,-0.52534 -3.93515,1.41267 -2.16897,1.89432 -2.72697,2.24747 -4.23622,2.68109 -2.41248,0.69313 -8.75524,1.14387 -11.08427,0.78768 z m 25.89782,-5.86981 c 0,-0.63553 -0.61227,-2.15188 -0.86887,-2.15188 -0.21595,0 -0.54144,0.85006 -0.54144,1.41398 0,0.56698 0.67091,1.38165 1.13786,1.38165 0.19643,0 0.27245,-0.1796 0.27245,-0.64375 z m 26.40597,2.86599 c 0.9063,-0.92678 0.98302,-1.65437 1.01287,-9.60445 0.0147,-3.91606 -0.0283,-7.12011 -0.0955,-7.12011 -0.0673,0 -0.37039,0.0857 -0.67368,0.19052 -1.18188,0.40836 -0.88528,-0.0244 1.35493,-1.9768 1.64604,-1.4346 2.56713,-2.10931 3.14685,-2.30508 1.50209,-0.50728 1.37631,-1.12696 1.35366,6.6686 -0.0194,6.69428 -0.0949,7.86697 -0.60628,9.41538 -0.12507,0.37874 -1.0225,1.28277 -2.9053,2.92668 -1.49837,1.30824 -2.8197,2.37864 -2.93627,2.37864 -0.11659,0 0.0404,-0.25802 0.34876,-0.57338 z m -15.38794,-0.40077 c -0.097,-0.024 -0.39215,-0.0907 -0.656,-0.14835 -0.56205,-0.12268 -0.90948,-0.66437 -0.74852,-1.16702 0.14022,-0.43788 1.11244,-1.55446 1.3535,-1.55446 0.0973,0 0.13317,0.11292 0.0797,0.25094 -0.0535,0.13801 0.0629,0.45251 0.25836,0.6989 0.50447,0.63566 1.3421,0.60922 1.99174,-0.0629 l 0.49377,-0.51081 0.40566,0.46712 c 0.22312,0.25693 0.47192,0.4014 0.55288,0.32105 0.0809,-0.0804 -0.0455,-0.30095 -0.28109,-0.49023 l -0.42831,-0.34415 0.73611,-0.72959 0.73611,-0.72958 0.42332,0.43356 c 0.81632,0.83603 0.76729,1.11746 -0.39539,2.26984 -0.90432,0.8963 -1.1484,1.04669 -1.69875,1.04669 -0.35349,0 -0.80274,-0.085 -0.99836,-0.18865 -0.27033,-0.1434 -0.42614,-0.12835 -0.64949,0.0628 -0.31089,0.26596 -0.88086,0.44776 -1.17528,0.37487 z m 45.76388,-2.2088 c -0.74571,-0.39461 -1.1433,-1.10409 -1.12942,-2.01545 0.0227,-1.49078 0.57761,-2.30819 3.03226,-4.46665 3.08469,-2.71248 2.97271,-2.63506 2.5094,-1.73497 -0.55046,1.06947 -0.65776,2.12555 -0.29327,2.88684 0.41814,0.87335 0.73531,0.93777 0.98119,0.1993 0.14912,-0.44781 0.85515,-1.17483 2.69301,-2.77307 1.37,-1.19139 2.55307,-2.12807 2.62902,-2.08153 0.076,0.0466 0.14021,0.65001 0.14277,1.34107 0.003,0.81245 0.11201,1.48653 0.30849,1.90758 l 0.3039,0.65114 2.10689,-1.82447 c 1.15879,-1.00346 2.13149,-1.8001 2.16155,-1.77029 0.10528,0.10434 -1.03172,3.37588 -1.35827,3.90807 -0.30873,0.50319 -4.90352,4.67757 -5.76305,5.23577 -0.22102,0.14354 -0.54727,0.20496 -0.74995,0.14121 -0.53597,-0.16861 -1.4286,-1.12288 -1.75248,-1.87352 l -0.28593,-0.66267 -1.23402,1.06735 c -0.67872,0.58704 -1.51168,1.25174 -1.85103,1.4771 -0.77245,0.513 -1.88209,0.68829 -2.45106,0.38719 z m -75.82108,-0.45082 c 0,-0.0766 -0.36365,-0.68594 -0.80811,-1.35413 l -0.8081,-1.21489 1.29289,-1.17587 c 0.71109,-0.64673 1.37614,-1.17746 1.47788,-1.17941 0.21475,-0.004 1.67185,2.34201 1.65412,2.66335 -0.0115,0.20903 -2.47471,2.40019 -2.69817,2.40019 -0.0607,0 -0.11051,-0.0627 -0.11051,-0.13924 z m 14.68241,-7.22422 c 0.43345,-1.02822 0.50942,-2.1214 0.2373,-3.41495 -0.27049,-1.28576 -1.07095,-3.20046 -1.70969,-4.08953 l -0.38296,-0.53306 1.01681,-0.9048 c 1.31668,-1.17158 1.4769,-1.25948 1.76324,-0.96747 0.38754,0.39525 1.44059,2.61714 1.76212,3.71808 0.37209,1.27402 0.28711,3.22715 -0.17925,4.11995 -0.2862,0.5479 -1.14307,1.4044 -2.33777,2.33677 l -0.41952,0.32741 z m 13.55902,-4.5529 c -0.26129,-0.25898 -0.27408,-1.17479 -0.0256,-1.83199 0.10229,-0.27054 0.63529,-0.94398 1.18443,-1.49656 0.81283,-0.81791 1.10596,-1.00467 1.5769,-1.00467 0.31813,0 0.57845,0.0632 0.57845,0.14046 0,0.29931 -1.27634,1.34472 -1.64178,1.34472 -0.2878,0 -0.39948,0.11963 -0.44049,0.47185 -0.087,0.74812 0.26507,1.23907 0.81421,1.13503 0.4197,-0.0796 0.38579,-0.0149 -0.35793,0.68149 -0.83414,0.78114 -1.30672,0.93781 -1.68824,0.55967 z m 55.14307,-0.009 c 0,-0.0488 0.119,-0.37092 0.26444,-0.71591 0.6804,-1.614 0.15813,-4.48442 -1.23885,-6.80876 l -0.64576,-1.07443 1.1186,-1.00475 c 0.61521,-0.55262 1.23758,-0.98632 1.38303,-0.96378 0.45612,0.0707 1.91916,3.21466 2.15361,4.62797 0.23923,1.44211 0.0219,2.96182 -0.52809,3.69406 -0.33833,0.45038 -2.50698,2.39294 -2.50698,2.2456 z"
       style="fill:none;stroke:#000000;stroke-width:0.17550592" />
    <path
       inkscape:connector-curvature="0"
       id="path210"
       d="m 252.38086,894.71484 c -2.71328,1.08595 -6.22607,3.74519 -3.06445,6.40235 2.19886,3.44692 0.61842,7.29999 -2.73243,8.85156 -1.73773,1.67131 -3.95806,3.05646 -5.02148,5.30273 0.33669,-4.23478 -0.12147,-8.97738 0.50391,-12.92968 2.0724,-2.04876 9.66787,-8.20321 5.92196,-7.15513 -10.25853,2.41796 -20.17615,8.6534 -25.43173,17.96177 -1.325,4.06227 -0.35364,-1.66587 -0.60771,-3.0976 -0.74385,-3.41143 2.02346,-9.79491 -2.51143,-11.05279 -1.97527,-0.41665 -4.53766,3.45577 -5.07617,2.11718 -2.09997,-4.69888 -6.52093,1.17796 -8.72846,2.86617 -1.94134,1.70117 -5.9304,5.23272 -0.60748,4.86626 0.68292,0.46373 -6.83473,0.008 -4.17578,-1.96875 0.68122,-2.12405 2.1868,-6.24768 -1.73828,-5.92969 -2.83665,0.12383 -3.8079,3.92613 -5.30274,4.89844 -3.02939,1.17301 -7.1546,4.15795 -6.55859,7.43945 -0.53145,2.15664 -5.97246,2.42221 -2.70898,0.34375 5.20422,-2.83997 4.11332,-11.08229 -0.35352,-13.86719 -2.95521,0.39578 -7.1765,3.82417 -3.83594,6.30664 1.97872,2.82874 1.19509,7.68976 -2.08789,8.04883 -2.11717,1.23856 -4.02653,3.71254 -4.39648,5.55469 -2.95864,0.63005 -3.09793,0.13126 -0.96289,-1.76172 1.26962,-3.35478 -3.58419,-8.13816 -6.15625,-4.08984 -6.11212,1.15981 3.43474,7.59868 -2.39649,6.01171 -3.24372,-1.40927 1.47665,-5.58852 2.04883,-7.60937 1.78842,-1.87551 4.53038,-7.676 -0.18555,-6.76367 -5.31851,3.45127 -8.51886,9.69112 -10.47851,15.55273 -0.9595,5.51742 6.03588,6.81234 10.09961,6.16602 -3.19679,1.90175 -9.23762,3.81465 -9.12696,7.97265 2.05435,3.36231 6.44213,-1.66376 9.45811,-2.28986 5.7098,-1.93402 10.61126,-5.57351 13.77236,-10.77459 1.37946,1.65986 3.87236,4.32864 6.69141,2.97656 2.84848,-1.46895 5.08662,-5.72469 8.40625,-4.40429 -1.66614,0.19778 -4.65663,1.58072 -6.37109,3.70117 -1.42268,1.30071 -5.80993,5.57156 -5.38282,1.97851 -2.8413,-3.49553 -6.6578,2.0005 -8.55273,4.29297 -0.79185,1.59148 -0.26952,3.78299 1.4043,4.5586 -5.69789,-1.1319 -12.61044,-1.93165 -17.22852,2.52343 -4.43144,2.71181 -5.67393,7.8927 -5.19727,12.76954 -2.7126,1.50744 -2.82082,4.74015 0.1211,5.21874 -0.0144,2.19068 -2.08898,5.58056 0.11914,6.50586 -2.41825,2.53149 -1.19165,8.75317 2.27148,3.82813 4.36234,-2.40639 6.14609,-7.66473 10.2793,-10.07422 3.84414,-1.87839 2.37476,0.40426 1.1543,2.61719 -2.37511,3.53538 1.33519,7.8305 5.13867,6.04687 1.06212,0.61834 -0.84323,4.32141 5.65175,0.60561 5.21011,-3.61201 12.58347,-3.67833 16.41075,-9.20131 8.80976,0.14978 18.50932,0.23476 26.80078,-1.21875 2.40191,5.90538 10.9642,7.04897 15.50586,3.94727 3.7516,1.76729 8.25828,0.6643 10.94141,-2.46875 1.80072,2.14887 6.80924,2.43513 7.69921,2.89648 -3.79811,1.67952 -6.05517,5.30404 -8.0625,8.75195 6.85421,-2.21819 13.3736,-5.58147 19.93946,-8.52343 1.91207,0.73802 3.43357,7.74678 6.85547,4.99218 2.30946,-2.18842 7.49031,-4.94031 4.11718,-8.30859 -1.54485,-1.66561 -2.81958,-3.42801 0.0645,-4.3457 5.80005,-4.57683 12.78702,-9.90452 12.27343,-18.1836 -0.18464,-11.37834 1.04661,-22.99359 -0.57948,-34.24769 -2.92018,-0.0419 -6.5416,4.19665 -9.06895,6.97035 0.14359,-2.43813 0.1487,-8.05258 -3.60938,-5.8125 -2.07242,0.92372 -4.75161,3.4523 -6.1914,3.70312 0.29725,-4.6319 -4.72179,-2.34288 -6.34766,0.0586 -1.92201,1.45975 -3.462,4.24388 -4.72151,3.00499 -2.29206,0.34539 -3.7869,3.94436 -4.65797,0.34522 -1.74821,-0.19935 2.03898,-2.9956 1.12362,-5.21545 -0.30259,-2.71547 -1.35344,-7.46215 -4.55664,-7.66211 z M 232.9668,907.7168 c -0.77313,3.03175 0.28026,7.46892 -0.84375,9.63281 -4.24292,-1.10767 -0.79839,-7.66301 0.84375,-9.63281 z m 18.50976,1.51562 c -0.3583,1.68541 -2.7985,-1.34885 0,0 z m 20.90235,5.09766 c 0.0807,9.86953 0.67266,19.85017 -0.0215,29.6582 -5.11583,5.4917 -0.86866,6.05655 3.50391,2.52344 3.17894,-2.48177 6.88398,-5.30596 5.68555,-9.91406 0.47172,-8.1891 -0.75891,-17.60447 0.42773,-25.07618 -0.59816,10.66884 1.50546,21.79033 -1.23633,32.08985 -2.51621,5.11314 -10.82136,3.43136 -12.6914,8.60547 -0.8308,-3.4911 -4.54229,-1.06537 -7.70704,-1.79297 -2.43954,0.64243 -7.14203,-2.80452 -5.39453,-4.63672 6.52474,-0.11476 11.6948,-5.57912 15.21094,-10.53711 3.21572,-7.22219 0.81562,-15.5732 1.43555,-23.23438 -0.0857,-4.62249 1.26718,0.0653 0.78711,2.31446 z m -10.64844,-2.01563 c 1.99558,1.92113 0.24069,9.40905 0.89844,13.27539 -0.62506,3.59102 1.45054,9.23459 -1.4043,11.71289 -5.88987,1.26182 -3.62386,-6.62764 -4.21875,-9.83203 0.23308,-4.44334 -1.80906,-9.73069 2.79102,-12.3789 0.9036,-0.68625 1.07335,-4.2888 1.93359,-2.77735 z m -74.12109,5.63086 c 1.27607,1.90545 -4.51539,0.38767 0,0 z m 33.49609,0.45117 c -0.76679,3.00313 2.05792,6.0884 3.48242,7.15235 -1.43165,0.6462 -4.5059,5.35793 -3.65183,1.39302 0.41279,-2.48345 -0.0744,-5.79041 -0.53762,-7.60787 0.23801,-0.23613 0.6397,-0.81117 0.70703,-0.9375 z m 20.47265,1.13086 c 1.55577,3.46608 5.99439,1.80948 7.87891,0.28125 1.22671,2.10544 5.76323,0.3409 1.60938,2.84375 -5.4049,2.97376 -2.71127,10.06337 -3.89844,14.6211 -3.84919,0.57909 -7.3548,-2.2092 -5.76887,-6.44917 0.0684,-3.6091 -0.0669,-8.33468 0.17902,-11.29693 z m -28.91015,0.54688 c -1.70508,1.85923 -0.0692,4.2429 -2.23828,5.5957 -5.84568,3.25382 5.09268,3.34957 -0.42383,3.74414 -1.97384,0.0247 -4.86297,-0.48571 -5.97461,-1.83398 3.03479,-1.94469 6.74237,-5.50059 8.63672,-7.50586 z m -31.08008,0.46484 c -0.68655,0.0856 0.0509,-0.77678 0,0 z m -1.08203,0.8418 c 0.33258,0.61481 -1.07139,0.54927 0,0 z m 51.83398,5.67187 c -0.19888,4.7439 0.34655,10.82191 -0.008,14.7461 -1.09615,1.11979 -4.23804,4.24657 -2.19922,1.24023 1.93142,-5.56652 0.26411,-12.11665 1.15821,-17.61914 1.69791,-1.58424 0.79954,0.93016 1.04882,1.63281 z m -45.65039,1.01172 c 0.89191,3.26369 7.81738,-0.63837 5.74024,3.09571 -2.06415,1.78671 -4.93708,5.0106 -8.56641,4.04687 -1.88147,-0.0649 -4.7181,0.55989 -1.94922,-0.91601 2.16402,-1.64847 4.04757,-3.74576 4.77539,-6.22657 z m 35.21485,4.23243 c -0.32803,4.0276 1.07776,9.39957 -0.58594,13.24414 -1.75005,3.63679 -7.34987,1.30707 -10.82422,2.15039 4.1959,-3.51738 11.14423,-7.36574 10.30078,-13.71875 -1.81358,-0.39258 -0.026,-2.82705 1.10938,-1.67578 z m -26.20703,0.41601 c 4.9548,1.50361 -2.53096,0.78642 0,0 z m -29.21094,5.12891 c 5.98673,5.81197 -7.618,3.08502 0,0 z m 42.38086,0.48242 c 3.03068,1.81575 -2.72016,4.73178 -1.91797,1.25586 0.69379,-0.28736 0.92236,-1.69588 1.91797,-1.25586 z m -18.76953,1.5918 c 2.21533,0.61768 2.62705,0.83603 0.17578,1.78906 -2.20379,0.19001 -4.39888,4.92128 -5.01953,1.61133 -2.36102,-2.0163 3.89186,-1.81159 4.84375,-3.40039 z m 11.43554,0.5 c 0.17943,1.80015 -2.43004,-0.14715 0,0 z m 38.3711,0.85937 c -1.01716,1.42926 -0.38032,-0.9842 0,0 z m -69.84961,0.87109 c -0.88433,0.43205 -0.57888,-0.25108 0,0 z m 3.59375,0.1875 c -1.79129,1.08829 -1.3026,3.30549 -0.45703,4.59766 -4.75066,0.19374 -9.23906,5.49702 -11.84961,6.67578 -0.19238,-4.12467 6.30948,-3.38679 8.38476,-6.49023 2.00115,-0.97461 2.37124,-3.86851 3.92188,-4.78321 z m 75.91992,1.02149 c 3.03888,2.35877 -3.74766,3.71627 -4.19922,6.59765 -1.18481,3.04245 -2.14699,-2.23059 -2.52344,-3.5 -0.24186,-1.65615 3.98047,-0.70632 5.30469,-2.23242 0.46376,-0.17888 1.06621,-0.92071 1.41797,-0.86523 z m -88.23828,1.13867 c 3.72548,0.37272 -1.32522,2.97149 0,0 z m 76.67969,0.76367 c 3.98443,0.10149 -1.80431,2.48824 -2.36379,3.81591 -0.49841,1.4764 -3.71065,3.41277 -2.13231,1.61964 2.22132,-1.14742 3.10531,-4.27928 4.4961,-5.43555 z m -44.17383,0.39649 c -0.82242,3.03435 -6.54529,1.77063 -1.62305,0.44726 0.12758,0.0977 3.33832,-1.8099 1.62305,-0.44726 z m -9.52735,1.58984 c -0.41354,0.0748 0.7049,-0.65305 0,0 z m -2.95507,4.21484 c -2.60111,-2.12266 3.54155,-2.20501 0,0 z m 18.19726,-0.0215 c -1.98921,1.6116 -0.15164,-1.57305 0,0 z m -13.38476,4.41602 c -1.52141,0.47259 -5.1024,2.84496 -2.43946,0.24414 0.34077,-0.85534 1.75745,0.0294 2.43946,-0.24414 z"
       style="fill:none;stroke:#000000;stroke-width:0.17550592" />
  </g>
</svg>
